<?xml version="1.0" standalone="no"?>
<!DOCTYPE svg PUBLIC "-//W3C//DTD SVG 20010904//EN"
 "http://www.w3.org/TR/2001/REC-SVG-20010904/DTD/svg10.dtd">
<svg version="1.0" xmlns="http://www.w3.org/2000/svg"
 width="180.000000pt" height="180.000000pt" viewBox="0 0 180.000000 180.000000"
 preserveAspectRatio="xMidYMid meet">
<metadata>
Created by potrace 1.11, written by Peter Selinger 2001-2013
</metadata>
<g transform="translate(0.000000,180.000000) scale(0.100000,-0.100000)"
fill="#000000" stroke="none">
<path d="M0 900 l0 -900 900 0 900 0 0 900 0 900 -900 0 -900 0 0 -900z m1009
409 c595 -331 601 -335 601 -404 0 -17 -8 -46 -19 -65 -16 -30 -87 -73 -582
-349 -538 -300 -566 -315 -617 -315 -49 -1 -56 2 -88 36 l-34 38 0 649 0 649
27 32 c14 18 36 36 47 41 56 24 89 8 665 -312z m276 -901 c70 -32 86 -142 27
-200 -40 -41 -107 -49 -155 -19 -41 25 -57 58 -57 117 0 39 5 51 34 80 29 29
41 34 80 34 25 0 57 -5 71 -12z"/>
<path d="M525 1247 c-3 -6 -4 -167 -3 -357 3 -323 4 -345 21 -348 18 -4 619
316 647 344 13 14 13 17 -7 34 -36 29 -618 340 -637 340 -9 0 -19 -6 -21 -13z"/>
</g>
</svg>
